<?xml version="1.0" encoding="UTF-8" standalone="no"?><!DOCTYPE svg PUBLIC "-//W3C//DTD SVG 1.1//EN" "http://www.w3.org/Graphics/SVG/1.1/DTD/svg11.dtd"><svg width="100%" height="100%" viewBox="0 0 24 24" version="1.1" xmlns="http://www.w3.org/2000/svg" xmlns:xlink="http://www.w3.org/1999/xlink" xml:space="preserve" xmlns:serif="http://www.serif.com/" style="fill-rule:evenodd;clip-rule:evenodd;stroke-linejoin:round;stroke-miterlimit:2;"><g><rect x="15.561" y="6.035" width="1.526" height="1.537" style="fill:#034775;"/><rect x="13.861" y="6.035" width="1.526" height="1.537" style="fill:#034775;"/><rect x="19.018" y="6.035" width="1.526" height="1.537" style="fill:#034775;"/><rect x="20.74" y="6.035" width="1.526" height="1.537" style="fill:#034775;"/><rect x="17.284" y="6.035" width="1.526" height="1.537" style="fill:#034775;"/><rect x="22.474" y="7.769" width="1.526" height="1.538" style="fill:#034775;"/><rect x="19.018" y="11.214" width="1.526" height="1.538" style="fill:#034775;"/><rect x="20.74" y="11.214" width="1.526" height="1.538" style="fill:#034775;"/><rect x="20.74" y="7.769" width="1.526" height="1.538" style="fill:#034775;"/><rect x="20.74" y="12.959" width="1.526" height="1.538" style="fill:#034775;"/><rect x="22.474" y="12.959" width="1.526" height="1.538" style="fill:#034775;"/><rect x="20.74" y="14.694" width="1.526" height="1.537" style="fill:#034775;"/><rect x="19.018" y="16.428" width="1.526" height="1.538" style="fill:#034775;"/><rect x="22.474" y="14.694" width="1.526" height="1.537" style="fill:#034775;"/><rect x="20.74" y="16.428" width="1.526" height="1.538" style="fill:#034775;"/><rect x="22.474" y="11.214" width="1.526" height="1.538" style="fill:#034775;"/><rect x="17.284" y="16.428" width="1.526" height="1.538" style="fill:#034775;"/><rect x="13.861" y="9.48" width="1.526" height="1.537" style="fill:#034775;"/><rect x="13.861" y="7.769" width="1.526" height="1.538" style="fill:#034775;"/><rect x="12.139" y="7.769" width="1.526" height="1.538" style="fill:#034775;"/><rect x="12.139" y="9.48" width="1.526" height="1.537" style="fill:#034775;"/><rect x="12.139" y="11.214" width="1.526" height="1.538" style="fill:#034775;"/><rect x="12.139" y="12.959" width="1.526" height="1.538" style="fill:#034775;"/><rect x="13.861" y="12.959" width="1.526" height="1.538" style="fill:#034775;"/><rect x="13.861" y="14.694" width="1.526" height="1.537" style="fill:#034775;"/><rect x="12.139" y="14.694" width="1.526" height="1.537" style="fill:#034775;"/><rect x="15.561" y="16.428" width="1.526" height="1.538" style="fill:#034775;"/><rect x="13.861" y="16.428" width="1.526" height="1.538" style="fill:#034775;"/><rect x="13.861" y="11.214" width="1.526" height="1.538" style="fill:#034775;"/></g><g><rect x="0" y="6.035" width="1.526" height="1.537" style="fill:#1a98d2;"/><rect x="1.723" y="6.035" width="1.526" height="1.537" style="fill:#1a98d2;"/><rect x="10.277" y="6.035" width="1.526" height="1.537" style="fill:#1a98d2;"/><rect x="8.555" y="6.035" width="1.526" height="1.537" style="fill:#1a98d2;"/><rect x="8.555" y="9.48" width="1.526" height="1.537" style="fill:#1a98d2;"/><rect x="10.277" y="9.48" width="1.526" height="1.537" style="fill:#1a98d2;"/><rect x="10.277" y="7.769" width="1.526" height="1.538" style="fill:#1a98d2;"/><rect x="8.555" y="7.769" width="1.526" height="1.538" style="fill:#1a98d2;"/><rect x="10.277" y="11.214" width="1.526" height="1.538" style="fill:#1a98d2;"/><rect x="10.277" y="12.959" width="1.526" height="1.538" style="fill:#1a98d2;"/><rect x="8.555" y="12.959" width="1.526" height="1.538" style="fill:#1a98d2;"/><rect x="10.277" y="14.694" width="1.526" height="1.537" style="fill:#1a98d2;"/><rect x="8.555" y="14.694" width="1.526" height="1.537" style="fill:#1a98d2;"/><rect x="8.555" y="11.214" width="1.526" height="1.538" style="fill:#1a98d2;"/><rect x="0" y="7.769" width="1.526" height="1.538" style="fill:#1a98d2;"/><rect x="0" y="9.48" width="1.526" height="1.537" style="fill:#1a98d2;"/><rect x="0" y="11.214" width="1.526" height="1.538" style="fill:#1a98d2;"/><rect x="1.723" y="9.48" width="1.526" height="1.537" style="fill:#1a98d2;"/><rect x="1.723" y="7.769" width="1.526" height="1.538" style="fill:#1a98d2;"/><rect x="1.723" y="11.214" width="1.526" height="1.538" style="fill:#1a98d2;"/><rect x="1.723" y="12.959" width="1.526" height="1.538" style="fill:#1a98d2;"/><rect x="0" y="12.959" width="1.526" height="1.538" style="fill:#1a98d2;"/><rect x="0" y="14.694" width="1.526" height="1.537" style="fill:#1a98d2;"/><rect x="1.723" y="14.694" width="1.526" height="1.537" style="fill:#1a98d2;"/><rect x="3.422" y="14.694" width="1.526" height="1.537" style="fill:#1a98d2;"/><rect x="1.723" y="16.428" width="1.526" height="1.457" style="fill:#1a98d2;"/><rect x="5.133" y="12.959" width="1.526" height="1.538" style="fill:#1a98d2;"/><rect x="5.133" y="14.694" width="1.526" height="1.537" style="fill:#1a98d2;"/><rect x="6.856" y="14.694" width="1.526" height="1.537" style="fill:#1a98d2;"/><rect x="6.856" y="16.428" width="1.526" height="1.457" style="fill:#1a98d2;"/><rect x="3.422" y="16.428" width="1.526" height="1.457" style="fill:#1a98d2;"/><rect x="8.555" y="16.428" width="1.526" height="1.457" style="fill:#1a98d2;"/></g></svg>